<svg width="326" height="326" viewBox="0 0 326 326" fill="none" xmlns="http://www.w3.org/2000/svg">
<g style="mix-blend-mode:darken">
<g filter="url(#filter0_i)">
<path d="M38 265H287C309.317 244.465 276.405 237.243 233.065 227.734L232 227.5C181.81 217.857 172.014 207.786 182.485 200.465C193.117 193.031 224.647 188.434 256 190C276.283 191.013 257.829 158.097 227.5 156H80C70.2664 159.428 54.7438 173.45 54 184.465C106.07 183.798 135.987 183.254 112 200.465L38 265Z" fill="#2D8CFF"/>
</g>
<path d="M38 265H287C309.317 244.465 276.405 237.243 233.065 227.734L232 227.5C181.81 217.857 172.014 207.786 182.485 200.465C193.117 193.031 224.647 188.434 256 190C276.283 191.013 257.829 158.097 227.5 156H80C70.2664 159.428 54.7438 173.45 54 184.465C106.07 183.798 135.987 183.254 112 200.465L38 265Z" stroke="black" stroke-opacity="0.4"/>
</g>
<rect x="54" y="37" width="217" height="103" rx="12" fill="#2D8CFF"/>
<path d="M77.096 76.552H88.352V77.464L79.064 91.984L78.704 92.344L79.232 92.272H88.592V94H76.04V93.088L85.304 78.616L85.688 78.208L85.112 78.28H77.096V76.552ZM89.3038 87.784C89.3038 86.68 89.4718 85.728 89.8078 84.928C90.1438 84.112 90.5838 83.44 91.1278 82.912C91.6718 82.384 92.2878 81.992 92.9758 81.736C93.6798 81.48 94.3838 81.352 95.0878 81.352C95.9998 81.352 96.8158 81.52 97.5358 81.856C98.2558 82.192 98.8638 82.648 99.3598 83.224C99.8558 83.8 100.232 84.48 100.488 85.264C100.744 86.048 100.872 86.888 100.872 87.784C100.872 88.824 100.712 89.752 100.392 90.568C100.088 91.368 99.6718 92.04 99.1438 92.584C98.6158 93.128 97.9998 93.544 97.2958 93.832C96.5918 94.104 95.8558 94.24 95.0878 94.24C94.2878 94.24 93.5358 94.104 92.8318 93.832C92.1278 93.544 91.5118 93.128 90.9838 92.584C90.4718 92.04 90.0638 91.368 89.7598 90.568C89.4558 89.752 89.3038 88.824 89.3038 87.784ZM91.6798 87.784C91.6798 88.488 91.7518 89.128 91.8958 89.704C92.0558 90.28 92.2798 90.776 92.5678 91.192C92.8558 91.608 93.2078 91.936 93.6238 92.176C94.0558 92.4 94.5438 92.512 95.0878 92.512C95.6638 92.512 96.1678 92.392 96.5998 92.152C97.0318 91.896 97.3838 91.552 97.6558 91.12C97.9438 90.688 98.1518 90.184 98.2798 89.608C98.4238 89.032 98.4958 88.424 98.4958 87.784C98.4958 86.984 98.3998 86.288 98.2078 85.696C98.0318 85.104 97.7838 84.616 97.4638 84.232C97.1598 83.848 96.7998 83.56 96.3838 83.368C95.9678 83.176 95.5358 83.08 95.0878 83.08C94.6238 83.08 94.1838 83.176 93.7678 83.368C93.3678 83.56 93.0078 83.848 92.6878 84.232C92.3838 84.616 92.1358 85.104 91.9438 85.696C91.7678 86.288 91.6798 86.984 91.6798 87.784ZM102.898 87.784C102.898 86.68 103.066 85.728 103.402 84.928C103.738 84.112 104.178 83.44 104.722 82.912C105.266 82.384 105.882 81.992 106.57 81.736C107.274 81.48 107.978 81.352 108.682 81.352C109.594 81.352 110.41 81.52 111.13 81.856C111.85 82.192 112.458 82.648 112.954 83.224C113.45 83.8 113.826 84.48 114.082 85.264C114.338 86.048 114.466 86.888 114.466 87.784C114.466 88.824 114.306 89.752 113.986 90.568C113.682 91.368 113.266 92.04 112.738 92.584C112.21 93.128 111.594 93.544 110.89 93.832C110.186 94.104 109.45 94.24 108.682 94.24C107.882 94.24 107.13 94.104 106.426 93.832C105.722 93.544 105.106 93.128 104.578 92.584C104.066 92.04 103.658 91.368 103.354 90.568C103.05 89.752 102.898 88.824 102.898 87.784ZM105.274 87.784C105.274 88.488 105.346 89.128 105.49 89.704C105.65 90.28 105.874 90.776 106.162 91.192C106.45 91.608 106.802 91.936 107.218 92.176C107.65 92.4 108.138 92.512 108.682 92.512C109.258 92.512 109.762 92.392 110.194 92.152C110.626 91.896 110.978 91.552 111.25 91.12C111.538 90.688 111.746 90.184 111.874 89.608C112.018 89.032 112.09 88.424 112.09 87.784C112.09 86.984 111.994 86.288 111.802 85.696C111.626 85.104 111.378 84.616 111.058 84.232C110.754 83.848 110.394 83.56 109.978 83.368C109.562 83.176 109.13 83.08 108.682 83.08C108.218 83.08 107.778 83.176 107.362 83.368C106.962 83.56 106.602 83.848 106.282 84.232C105.978 84.616 105.73 85.104 105.538 85.696C105.362 86.288 105.274 86.984 105.274 87.784ZM118.939 81.592C119.323 82.024 119.571 82.456 119.683 82.888C119.811 83.304 119.875 83.752 119.875 84.232V94H117.571V84.616C117.571 84.168 117.539 83.696 117.475 83.2C117.427 82.688 117.339 82.152 117.211 81.592H118.939ZM125.299 84.976C125.299 84.416 125.179 83.96 124.939 83.608C124.715 83.256 124.371 83.08 123.907 83.08C123.715 83.08 123.547 83.096 123.403 83.128C123.259 83.16 123.083 83.2 122.875 83.248C122.411 83.36 121.987 83.368 121.603 83.272C121.219 83.176 120.859 82.952 120.523 82.6C121.371 82.104 122.083 81.776 122.659 81.616C123.235 81.44 123.739 81.352 124.171 81.352C124.635 81.352 125.075 81.416 125.491 81.544C125.907 81.656 126.267 81.864 126.571 82.168C126.891 82.472 127.139 82.872 127.315 83.368C127.507 83.864 127.603 84.48 127.603 85.216V94H125.299V84.976ZM133.003 84.976C133.003 84.416 132.883 83.96 132.643 83.608C132.403 83.256 132.027 83.08 131.515 83.08C131.323 83.08 131.147 83.104 130.987 83.152C130.827 83.184 130.635 83.224 130.411 83.272C129.947 83.384 129.515 83.392 129.115 83.296C128.715 83.2 128.347 82.976 128.011 82.624C128.875 82.112 129.603 81.776 130.195 81.616C130.803 81.44 131.323 81.352 131.755 81.352C132.235 81.352 132.683 81.416 133.099 81.544C133.531 81.656 133.907 81.864 134.227 82.168C134.563 82.472 134.827 82.872 135.019 83.368C135.211 83.864 135.307 84.48 135.307 85.216V94H133.003V84.976ZM150.096 77.992C149.648 77.992 149.248 78.064 148.896 78.208C148.56 78.336 148.272 78.52 148.032 78.76C147.792 79 147.608 79.28 147.48 79.6C147.368 79.904 147.312 80.232 147.312 80.584C147.312 81.208 147.512 81.744 147.912 82.192C148.312 82.624 148.816 83.024 149.424 83.392C150.032 83.76 150.68 84.128 151.368 84.496C152.072 84.848 152.728 85.256 153.336 85.72C153.944 86.184 154.448 86.728 154.848 87.352C155.248 87.976 155.448 88.744 155.448 89.656C155.448 90.248 155.32 90.824 155.064 91.384C154.824 91.944 154.456 92.44 153.96 92.872C153.48 93.304 152.888 93.648 152.184 93.904C151.48 94.16 150.672 94.288 149.76 94.288C149.424 94.288 149.048 94.264 148.632 94.216C148.216 94.184 147.792 94.128 147.36 94.048C146.928 93.968 146.488 93.856 146.04 93.712C145.592 93.568 145.168 93.4 144.768 93.208L145.392 91.648C146.112 91.968 146.832 92.2 147.552 92.344C148.288 92.488 148.936 92.56 149.496 92.56C150.632 92.56 151.512 92.28 152.136 91.72C152.76 91.144 153.072 90.44 153.072 89.608C153.072 88.92 152.872 88.352 152.472 87.904C152.072 87.44 151.576 87.024 150.984 86.656C150.392 86.288 149.744 85.936 149.04 85.6C148.336 85.248 147.688 84.856 147.096 84.424C146.504 83.976 146.008 83.448 145.608 82.84C145.208 82.232 145.008 81.48 145.008 80.584C145.008 79.992 145.12 79.432 145.344 78.904C145.584 78.376 145.92 77.912 146.352 77.512C146.784 77.112 147.296 76.8 147.888 76.576C148.48 76.352 149.136 76.24 149.856 76.24C150.544 76.24 151.232 76.296 151.92 76.408C152.624 76.52 153.384 76.704 154.2 76.96L153.552 78.52C152.864 78.312 152.224 78.176 151.632 78.112C151.056 78.032 150.544 77.992 150.096 77.992ZM163.433 94.24C162.633 94.24 161.881 94.104 161.177 93.832C160.473 93.544 159.857 93.128 159.329 92.584C158.817 92.04 158.409 91.368 158.105 90.568C157.801 89.752 157.649 88.824 157.649 87.784C157.649 86.744 157.801 85.824 158.105 85.024C158.425 84.224 158.849 83.552 159.377 83.008C159.905 82.464 160.521 82.056 161.225 81.784C161.929 81.496 162.665 81.352 163.433 81.352C163.865 81.352 164.337 81.392 164.849 81.472C165.377 81.552 165.881 81.68 166.361 81.856L165.809 83.416C165.345 83.288 164.921 83.2 164.537 83.152C164.169 83.104 163.801 83.08 163.433 83.08C162.969 83.08 162.529 83.176 162.113 83.368C161.713 83.56 161.353 83.848 161.033 84.232C160.729 84.616 160.481 85.104 160.289 85.696C160.113 86.288 160.025 86.984 160.025 87.784C160.025 88.6 160.113 89.304 160.289 89.896C160.481 90.488 160.729 90.976 161.033 91.36C161.353 91.744 161.713 92.032 162.113 92.224C162.529 92.416 162.969 92.512 163.433 92.512C163.785 92.512 164.169 92.464 164.585 92.368C165.017 92.256 165.513 92.072 166.073 91.816L166.673 93.4C166.017 93.72 165.401 93.936 164.825 94.048C164.265 94.176 163.801 94.24 163.433 94.24ZM168.875 94V75.808H171.107V94H168.875ZM176.627 84.976C176.627 84.416 176.515 83.96 176.291 83.608C176.083 83.256 175.747 83.08 175.283 83.08C175.091 83.08 174.931 83.104 174.803 83.152C174.691 83.184 174.523 83.224 174.299 83.272C173.835 83.384 173.411 83.392 173.027 83.296C172.643 83.2 172.283 82.976 171.947 82.624C172.795 82.128 173.499 81.792 174.059 81.616C174.619 81.44 175.123 81.352 175.571 81.352C176.035 81.352 176.467 81.416 176.867 81.544C177.283 81.656 177.643 81.864 177.947 82.168C178.251 82.472 178.491 82.872 178.667 83.368C178.843 83.864 178.931 84.48 178.931 85.216V94H176.627V84.976ZM190.38 86.392C190.428 85.928 190.396 85.496 190.284 85.096C190.172 84.696 189.996 84.344 189.756 84.04C189.532 83.736 189.252 83.504 188.916 83.344C188.58 83.168 188.22 83.08 187.836 83.08C186.828 83.08 186.004 83.48 185.364 84.28C184.74 85.08 184.428 86.224 184.428 87.712C184.428 88.432 184.524 89.088 184.716 89.68C184.908 90.256 185.172 90.76 185.508 91.192C185.86 91.608 186.268 91.936 186.732 92.176C187.196 92.4 187.7 92.512 188.244 92.512C188.804 92.512 189.324 92.456 189.804 92.344C190.3 92.232 190.892 92 191.58 91.648L192.18 93.232C191.412 93.632 190.668 93.896 189.948 94.024C189.228 94.168 188.58 94.24 188.004 94.24C187.124 94.24 186.324 94.08 185.604 93.76C184.884 93.424 184.268 92.968 183.756 92.392C183.26 91.8 182.876 91.104 182.604 90.304C182.332 89.504 182.196 88.632 182.196 87.688C182.196 86.712 182.332 85.84 182.604 85.072C182.876 84.288 183.268 83.624 183.78 83.08C184.292 82.52 184.908 82.096 185.628 81.808C186.348 81.504 187.164 81.352 188.076 81.352C188.892 81.352 189.62 81.536 190.26 81.904C190.9 82.272 191.412 82.768 191.796 83.392C192.18 84 192.412 84.704 192.492 85.504C192.588 86.304 192.508 87.136 192.252 88H185.292C185.468 87.536 185.708 87.152 186.012 86.848C186.316 86.544 186.756 86.392 187.332 86.392H190.38ZM195.13 87.736C195.13 86.776 195.282 85.912 195.586 85.144C195.906 84.36 196.322 83.696 196.834 83.152C197.362 82.608 197.954 82.192 198.61 81.904C199.282 81.6 199.978 81.448 200.698 81.448C201.066 81.448 201.45 81.48 201.85 81.544C202.25 81.592 202.666 81.696 203.098 81.856C202.874 82.256 202.578 82.584 202.21 82.84C201.858 83.08 201.402 83.192 200.842 83.176C200.426 83.16 200.018 83.24 199.618 83.416C199.218 83.576 198.858 83.84 198.538 84.208C198.234 84.576 197.986 85.056 197.794 85.648C197.602 86.224 197.506 86.92 197.506 87.736C197.506 88.44 197.578 89.088 197.722 89.68C197.866 90.256 198.074 90.752 198.346 91.168C198.618 91.584 198.954 91.912 199.354 92.152C199.77 92.392 200.242 92.512 200.77 92.512C201.906 92.512 202.954 91.928 203.914 90.76V75.808H206.146V89.896C206.146 90.856 206.178 91.68 206.242 92.368C206.322 93.04 206.41 93.584 206.506 94H204.898C204.706 93.824 204.546 93.648 204.418 93.472C204.306 93.28 204.186 93.024 204.058 92.704L204.01 92.32L203.818 92.728C203.322 93.288 202.754 93.68 202.114 93.904C201.474 94.128 200.906 94.24 200.41 94.24C199.562 94.24 198.81 94.072 198.154 93.736C197.514 93.4 196.962 92.944 196.498 92.368C196.05 91.776 195.706 91.088 195.466 90.304C195.242 89.504 195.13 88.648 195.13 87.736ZM218.69 94C218.306 93.568 218.05 93.144 217.922 92.728C217.81 92.296 217.754 91.84 217.754 91.36V81.592H219.986V90.976C219.986 91.424 220.01 91.904 220.058 92.416C220.122 92.912 220.226 93.44 220.37 94H218.69ZM212.21 90.616C212.21 91.176 212.322 91.632 212.546 91.984C212.786 92.336 213.162 92.512 213.674 92.512C213.866 92.512 214.026 92.496 214.154 92.464C214.298 92.416 214.482 92.368 214.706 92.32C215.17 92.208 215.602 92.2 216.002 92.296C216.402 92.392 216.77 92.616 217.106 92.968C216.258 93.48 215.538 93.824 214.946 94C214.37 94.16 213.866 94.24 213.434 94.24C212.954 94.24 212.506 94.176 212.09 94.048C211.674 93.936 211.306 93.728 210.986 93.424C210.666 93.12 210.41 92.728 210.218 92.248C210.042 91.752 209.954 91.128 209.954 90.376V81.592H212.21V90.616ZM226.56 94H224.376V75.808H226.56V94ZM237.958 86.392C238.006 85.928 237.974 85.496 237.862 85.096C237.75 84.696 237.574 84.344 237.334 84.04C237.11 83.736 236.83 83.504 236.494 83.344C236.158 83.168 235.798 83.08 235.414 83.08C234.406 83.08 233.582 83.48 232.942 84.28C232.318 85.08 232.006 86.224 232.006 87.712C232.006 88.432 232.102 89.088 232.294 89.68C232.486 90.256 232.75 90.76 233.086 91.192C233.438 91.608 233.846 91.936 234.31 92.176C234.774 92.4 235.278 92.512 235.822 92.512C236.382 92.512 236.902 92.456 237.382 92.344C237.878 92.232 238.47 92 239.158 91.648L239.758 93.232C238.99 93.632 238.246 93.896 237.526 94.024C236.806 94.168 236.158 94.24 235.582 94.24C234.702 94.24 233.902 94.08 233.182 93.76C232.462 93.424 231.846 92.968 231.334 92.392C230.838 91.8 230.454 91.104 230.182 90.304C229.91 89.504 229.774 88.632 229.774 87.688C229.774 86.712 229.91 85.84 230.182 85.072C230.454 84.288 230.846 83.624 231.358 83.08C231.87 82.52 232.486 82.096 233.206 81.808C233.926 81.504 234.742 81.352 235.654 81.352C236.47 81.352 237.198 81.536 237.838 81.904C238.478 82.272 238.99 82.768 239.374 83.392C239.758 84 239.99 84.704 240.07 85.504C240.166 86.304 240.086 87.136 239.83 88H232.87C233.046 87.536 233.286 87.152 233.59 86.848C233.894 86.544 234.334 86.392 234.91 86.392H237.958ZM244.844 81.592C245.1 81.864 245.276 82.16 245.372 82.48C245.484 82.784 245.58 83.128 245.66 83.512V83.944L245.852 83.512C246.172 82.904 246.62 82.408 247.196 82.024C247.772 81.624 248.388 81.424 249.044 81.424C249.364 81.424 249.756 81.488 250.22 81.616L249.932 83.488C249.676 83.424 249.452 83.384 249.26 83.368C249.084 83.352 248.924 83.344 248.78 83.344C248.412 83.344 248.044 83.424 247.676 83.584C247.308 83.728 246.98 83.96 246.692 84.28C246.404 84.6 246.164 85.016 245.972 85.528C245.796 86.04 245.708 86.656 245.708 87.376V94H243.572V85.792C243.572 85.056 243.54 84.312 243.476 83.56C243.412 82.808 243.316 82.152 243.188 81.592H244.844Z" fill="white"/>
<defs>
<filter id="filter0_i" x="36.6659" y="155.5" width="258.022" height="114" filterUnits="userSpaceOnUse" color-interpolation-filters="sRGB">
<feFlood flood-opacity="0" result="BackgroundImageFix"/>
<feBlend mode="normal" in="SourceGraphic" in2="BackgroundImageFix" result="shape"/>
<feColorMatrix in="SourceAlpha" type="matrix" values="0 0 0 0 0 0 0 0 0 0 0 0 0 0 0 0 0 0 127 0" result="hardAlpha"/>
<feOffset dy="4"/>
<feGaussianBlur stdDeviation="2"/>
<feComposite in2="hardAlpha" operator="arithmetic" k2="-1" k3="1"/>
<feColorMatrix type="matrix" values="0 0 0 0 0 0 0 0 0 0 0 0 0 0 0 0 0 0 0.25 0"/>
<feBlend mode="normal" in2="shape" result="effect1_innerShadow"/>
</filter>
</defs>
</svg>
